<?xml version="1.0" standalone="no"?>
<!DOCTYPE svg PUBLIC "-//W3C//DTD SVG 20010904//EN"
 "http://www.w3.org/TR/2001/REC-SVG-20010904/DTD/svg10.dtd">
<svg version="1.0" xmlns="http://www.w3.org/2000/svg"
 width="700.000000pt" height="500.000000pt" viewBox="0 0 700.000000 500.000000"
 preserveAspectRatio="xMidYMid meet">
<metadata>
Created by potrace 1.15, written by Peter Selinger 2001-2017
</metadata>
<g transform="translate(0.000000,500.000000) scale(0.100000,-0.100000)"
fill="#000000" stroke="none">
<path d="M1518 4925 c-1 -2 -209 -6 -460 -8 l-457 -5 -53 -25 c-62 -29 -111
-75 -140 -131 -32 -62 -35 -153 -36 -1186 -1 -514 -5 -1357 -8 -1872 -6 -709
-4 -938 4 -938 8 0 11 -24 10 -77 l-2 -78 -3 73 c-2 39 -8 72 -13 72 -6 0 -10
-65 -10 -160 0 -145 2 -164 23 -212 39 -89 125 -147 245 -167 57 -9 738 -17
2492 -26 509 -3 988 -7 1065 -10 77 -3 597 -8 1156 -11 784 -5 1028 -4 1067 6
38 9 66 25 106 62 85 77 95 98 100 214 4 82 21 3351 21 4034 0 189 -2 209 -22
252 -30 66 -95 132 -153 157 -49 21 -54 21 -872 21 -1799 -1 -2308 0 -3153 5
-484 4 -885 8 -892 10 -6 2 -13 2 -15 0z m208 -92 c1662 -11 4723 -10 4728 2
3 6 5 2 5 -7 1 -9 15 -32 32 -50 59 -63 63 -80 64 -333 1 -126 -1 -1085 -4
-2130 l-6 -1900 -27 -55 c-32 -63 -79 -101 -153 -123 -43 -12 -131 -13 -625
-7 -722 10 -2590 22 -3440 21 -399 0 -665 4 -698 10 -40 8 -57 8 -68 -2 -11
-9 -23 -9 -55 0 -31 9 -44 10 -55 0 -10 -8 -14 -8 -14 0 0 6 -11 11 -25 11
-14 0 -25 -6 -25 -12 0 -9 -2 -10 -8 -2 -4 6 -29 11 -57 11 -27 -1 -147 3
-265 8 -118 6 -270 10 -338 10 -67 0 -122 3 -122 8 0 4 -11 7 -25 7 -14 0 -25
4 -25 9 0 5 -9 11 -21 14 -11 3 -25 19 -32 36 -6 17 -17 31 -24 31 -6 0 -15
10 -20 23 -9 24 -5 1066 6 1512 4 154 8 669 9 1145 4 1494 6 1577 25 1641 17
55 51 98 80 103 8 1 21 7 28 13 17 13 42 21 50 17 4 -2 501 -7 1105 -11z"/>
<path d="M3295 3720 c-96 -18 -227 -61 -313 -104 -123 -61 -214 -127 -315
-228 -444 -446 -448 -1155 -11 -1614 131 -137 317 -252 489 -302 140 -41 187
-47 355 -46 144 1 177 4 263 27 524 139 877 593 877 1126 0 333 -136 636 -386
861 -140 126 -296 208 -494 262 -85 22 -376 34 -465 18z m351 -41 c352 -49
672 -276 829 -589 180 -360 163 -768 -47 -1111 -63 -103 -221 -264 -328 -334
-312 -204 -726 -239 -1062 -89 -369 165 -618 511 -658 913 -17 162 11 373 66
507 33 81 97 201 136 254 98 133 264 273 413 348 184 93 434 131 651 101z"/>
<path d="M5653 565 c-64 -27 -76 -110 -24 -157 43 -39 92 -38 132 1 51 51 33
137 -33 160 -38 13 -36 13 -75 -4z"/>
</g>
</svg>
