<?xml version="1.0" standalone="no"?>
<!DOCTYPE svg PUBLIC "-//W3C//DTD SVG 20010904//EN"
 "http://www.w3.org/TR/2001/REC-SVG-20010904/DTD/svg10.dtd">
<svg version="1.0" xmlns="http://www.w3.org/2000/svg"
 width="700.000000pt" height="500.000000pt" viewBox="0 0 700.000000 500.000000"
 preserveAspectRatio="xMidYMid meet">
<metadata>
Created by potrace 1.15, written by Peter Selinger 2001-2017
</metadata>
<g transform="translate(0.000000,500.000000) scale(0.100000,-0.100000)"
fill="#000000" stroke="none">
<path d="M622 4875 c-108 -30 -189 -112 -211 -213 -6 -30 -12 -566 -16 -1477
-3 -786 -10 -1733 -15 -2102 -10 -747 -13 -702 58 -783 45 -52 126 -92 218
-109 39 -7 240 -11 565 -11 277 0 749 -5 1049 -10 300 -6 1155 -13 1900 -16
745 -3 1544 -9 1775 -12 335 -6 428 -4 462 6 56 18 166 119 187 173 15 36 17
148 21 1087 2 576 7 1536 11 2133 7 1205 10 1140 -58 1223 -42 51 -106 96
-125 89 -8 -3 -19 0 -24 8 -7 12 -273 14 -1766 14 -967 0 -2257 3 -2868 8
-976 6 -1116 5 -1163 -8z m3353 -80 c1315 -2 2410 -7 2434 -10 57 -9 124 -73
136 -131 9 -44 8 -3111 -1 -3804 -6 -445 -6 -456 -29 -506 -25 -56 -68 -95
-130 -114 -31 -10 -306 -12 -1365 -6 -729 3 -1559 8 -1845 11 -286 3 -842 8
-1235 11 -393 3 -851 11 -1018 18 -173 6 -303 7 -305 2 -2 -5 -9 -2 -17 5 -17
17 -72 43 -83 41 -4 -1 -7 4 -7 11 0 7 -15 35 -32 63 l-33 49 2 575 c2 316 6
771 11 1010 5 239 9 899 11 1465 1 567 4 1053 7 1080 2 28 6 69 9 92 4 44 25
82 65 118 21 19 40 20 444 25 231 3 459 4 506 2 47 -1 1161 -4 2475 -7z"/>
<path d="M2553 3055 c-139 -30 -286 -141 -356 -267 -46 -81 -67 -166 -67 -265
0 -152 52 -276 161 -385 213 -211 547 -211 758 1 113 113 161 231 161 390 -1
152 -51 272 -159 380 -129 129 -319 185 -498 146z m307 -34 c159 -61 299 -226
330 -390 35 -183 -14 -344 -145 -477 -213 -216 -532 -217 -748 -2 -134 134
-184 309 -141 494 27 119 95 223 196 300 105 81 186 105 343 100 82 -2 124 -9
165 -25z"/>
<path d="M4416 3058 c-26 -5 -76 -21 -110 -37 -250 -115 -374 -372 -306 -637
60 -235 277 -404 519 -404 272 0 503 201 541 471 52 363 -281 677 -644 607z
m249 -23 c132 -35 259 -140 328 -274 166 -317 -41 -712 -398 -762 -163 -23
-326 32 -445 151 -206 205 -208 538 -4 743 65 66 169 129 240 146 63 15 214
12 279 -4z"/>
<path d="M5664 550 c-30 -12 -64 -58 -64 -87 0 -96 132 -139 180 -60 35 56 20
115 -35 142 -37 17 -50 18 -81 5z"/>
</g>
</svg>
